<svg xmlns="http://www.w3.org/2000/svg" xmlns:xlink="http://www.w3.org/1999/xlink" fill="none" version="1.1" width="16" height="16" viewBox="0 0 16 16"><clipPath id="master_svg_0"><rect x="0" y="0" width="16" height="16" rx="0"/></clipPath><g clip-path="url(#master_svg_0)"><g><path d="M14.66668701171875,10L12.66668701171875,10L12.66668701171875,2L14.66668701171875,2C15.03488701171875,2,15.33338701171875,2.298477,15.33338701171875,2.666667L15.33338701171875,9.33333C15.33338701171875,9.70152,15.03488701171875,10,14.66668701171875,10ZM11.13798701171875,10.862L6.87135701171875,15.1287C6.75410701171875,15.2462,6.56820701171875,15.2596,6.43535701171875,15.16L5.86668701171875,14.7333C5.54373701171875,14.4909,5.39829701171875,14.078,5.49801701171875,13.6867L6.26668701171875,10.66667L2.00001701171875,10.66667C1.26364101171875,10.66667,0.66668772697475,10.06971,0.66668772697475,9.33333L0.66668772697475,7.93067C0.66650799871875,7.75643,0.70048171171875,7.58384,0.76668801171875,7.42267L2.83068701171875,2.413333C2.93332701171875,2.163488,3.17657701171875,2.000266393,3.44668701171875,2L10.66668701171875,2C11.03488701171875,2,11.33338701171875,2.298477,11.33338701171875,2.666667L11.33338701171875,10.39067C11.33328701171875,10.56746,11.26308701171875,10.73701,11.13798701171875,10.862" fill="#D8D8D8" fill-opacity="1"/></g></g></svg>