<svg xmlns="http://www.w3.org/2000/svg" xmlns:xlink="http://www.w3.org/1999/xlink" fill="none" version="1.1" width="16" height="18.133333206176758" viewBox="0 0 16 18.133333206176758"><clipPath id="master_svg_0"><rect x="0" y="0" width="16" height="18.133333206176758" rx="0"/></clipPath><g clip-path="url(#master_svg_0)"><g><path d="M1.3332929765625,6.79999484375L3.3332959765625,6.79999484375L3.3332959765625,15.86666484375L1.3332929765625,15.86666484375C0.9651029765625,15.86666484375,0.6666259765625,15.52836484375,0.6666259765625,15.11106484375L0.6666259765625,7.55554484375C0.6666259765625,7.13826484375,0.9651029765625,6.79999484375,1.3332929765625,6.79999484375ZM4.8619559765625,5.82305484375L9.1286259765625,0.98750184375C9.2458659765625,0.85424314375,9.4317759765625,0.83910164375,9.5646259765625,0.95199024375L10.1332959765625,1.43554584375C10.4562459765625,1.71031684375,10.6016859765625,2.17826484375,10.5019559765625,2.6217648437500003L9.7332959765625,6.04443484375L13.9999259765625,6.04443484375C14.7363259765625,6.04443484375,15.3333259765625,6.72098484375,15.3333259765625,7.55554484375L15.3333259765625,9.14523484375C15.3334259765625,9.34270484375,15.2995259765625,9.53830484375,15.2333259765625,9.72096484375L13.1699259765625,15.39896484375C13.0670259765625,15.68206484375,12.8235259765625,15.86676484375,12.5533259765625,15.86666484375L5.3332959765625,15.86666484375C4.9651059765625,15.86666484375,4.6666259765625,15.52836484375,4.6666259765625,15.11106484375L4.6666259765625,6.35723484375C4.6666659765625,6.15686484375,4.7369259765625,5.96471484375,4.8619559765625,5.82305484375Z" fill="#D8D8D8" fill-opacity="1"/></g></g></svg>